{
  "accessors": [
    {
      "bufferView": 2,
      "componentType": 5126,
      "count": 5355,
      "max": [
        15.675154685974121,
        -1.1758979558944702,
        9.539417266845703
      ],
      "min": [
        -15.211085319519043,
        -11.38663101196289,
        -9.53760814666748
      ],
      "type": "VEC3"
    },
    {
      "bufferView": 2,
      "byteOffset": 64260,
      "componentType": 5126,
      "count": 5355,
      "max": [
        0.9994463920593262,
        1.0,
        1.0
      ],
      "min": [
        -0.9999146461486816,
        -0.9998800158500671,
        -0.999333918094635
      ],
      "type": "VEC3"
    },
    {
      "bufferView": 1,
      "componentType": 5126,
      "count": 5355,
      "max": [
        0.999563992023468,
        0.9669190049171448
      ],
      "min": [
        0.00012199999764561653,
        0.00041099998634308577
      ],
      "type": "VEC2"
    },
    {
      "bufferView": 0,
      "componentType": 5125,
      "count": 5355,
      "type": "SCALAR"
    },
    {
      "bufferView": 2,
      "byteOffset": 128520,
      "componentType": 5126,
      "count": 2376,
      "max": [
        15.583097457885742,
        -1.164307951927185,
        9.606528282165527
      ],
      "min": [
        -15.148862838745117,
        -11.31328010559082,
        -9.51652717590332
      ],
      "type": "VEC3"
    },
    {
      "bufferView": 2,
      "byteOffset": 157032,
      "componentType": 5126,
      "count": 2376,
      "max": [
        1.0,
        1.0,
        1.0
      ],
      "min": [
        -1.0,
        -1.0,
        -1.0
      ],
      "type": "VEC3"
    },
    {
      "bufferView": 1,
      "byteOffset": 42840,
      "componentType": 5126,
      "count": 2376,
      "max": [
        0.999547004699707,
        0.9742429852485657
      ],
      "min": [
        0.00012199999764561653,
        0.0008720000041648746
      ],
      "type": "VEC2"
    },
    {
      "bufferView": 0,
      "byteOffset": 21420,
      "componentType": 5125,
      "count": 3762,
      "type": "SCALAR"
    },
    {
      "bufferView": 2,
      "byteOffset": 185544,
      "componentType": 5126,
      "count": 65532,
      "max": [
        15.825593948364258,
        -1.1848950386047363,
        9.387372970581055
      ],
      "min": [
        -15.17274284362793,
        -11.376270294189453,
        -9.37542724609375
      ],
      "type": "VEC3"
    },
    {
      "bufferView": 2,
      "byteOffset": 971928,
      "componentType": 5126,
      "count": 65532,
      "max": [
        0.9999992251396179,
        0.9999907612800598,
        0.9999951124191284
      ],
      "min": [
        -0.9999963641166687,
        -1.0,
        -1.0
      ],
      "type": "VEC3"
    },
    {
      "bufferView": 1,
      "byteOffset": 61848,
      "componentType": 5126,
      "count": 65532,
      "max": [
        0.999629020690918,
        0.9815670251846313
      ],
      "min": [
        0.00012199999764561653,
        0.00036800000816583633
      ],
      "type": "VEC2"
    },
    {
      "bufferView": 0,
      "byteOffset": 36468,
      "componentType": 5125,
      "count": 190662,
      "type": "SCALAR"
    },
    {
      "bufferView": 2,
      "byteOffset": 1758312,
      "componentType": 5126,
      "count": 65534,
      "max": [
        15.907377243041992,
        -1.164381980895996,
        9.684197425842285
      ],
      "min": [
        -15.053890228271484,
        -9.477371215820313,
        -9.603581428527832
      ],
      "type": "VEC3"
    },
    {
      "bufferView": 2,
      "byteOffset": 2544720,
      "componentType": 5126,
      "count": 65534,
      "max": [
        0.9999973773956299,
        0.9999947547912598,
        0.9999908804893494
      ],
      "min": [
        -0.9999998807907104,
        -1.0,
        -0.9999997615814209
      ],
      "type": "VEC3"
    },
    {
      "bufferView": 1,
      "byteOffset": 586104,
      "componentType": 5126,
      "count": 65534,
      "max": [
        0.999584972858429,
        0.9713129997253418
      ],
      "min": [
        0.00012199999764561653,
        0.0003859999997075647
      ],
      "type": "VEC2"
    },
    {
      "bufferView": 0,
      "byteOffset": 799116,
      "componentType": 5125,
      "count": 196665,
      "type": "SCALAR"
    },
    {
      "bufferView": 2,
      "byteOffset": 3331128,
      "componentType": 5126,
      "count": 65532,
      "max": [
        9.416604995727539,
        -1.2424089908599854,
        5.075160980224609
      ],
      "min": [
        -12.169654846191406,
        -11.593441009521484,
        -5.868558883666992
      ],
      "type": "VEC3"
    },
    {
      "bufferView": 2,
      "byteOffset": 4117512,
      "componentType": 5126,
      "count": 65532,
      "max": [
        0.9999978542327881,
        0.9999920129776001,
        0.9999926686286926
      ],
      "min": [
        -0.999997615814209,
        -0.9999940991401672,
        -0.9999567866325378
      ],
      "type": "VEC3"
    },
    {
      "bufferView": 1,
      "byteOffset": 1110376,
      "componentType": 5126,
      "count": 65532,
      "max": [
        0.9996309876441956,
        0.9654539823532104
      ],
      "min": [
        0.00012199999764561653,
        0.00037900000461377203
      ],
      "type": "VEC2"
    },
    {
      "bufferView": 0,
      "byteOffset": 1585776,
      "componentType": 5125,
      "count": 158865,
      "type": "SCALAR"
    },
    {
      "bufferView": 2,
      "byteOffset": 4903896,
      "componentType": 5126,
      "count": 65532,
      "max": [
        14.031959533691406,
        -1.2021169662475586,
        9.805854797363281
      ],
      "min": [
        -14.239079475402832,
        -11.356361389160156,
        -9.457263946533203
      ],
      "type": "VEC3"
    },
    {
      "bufferView": 2,
      "byteOffset": 5690280,
      "componentType": 5126,
      "count": 65532,
      "max": [
        0.9999972581863403,
        0.9999980926513672,
        0.999995768070221
      ],
      "min": [
        -0.9999998807907104,
        -1.0,
        -0.9999997615814209
      ],
      "type": "VEC3"
    },
    {
      "bufferView": 1,
      "byteOffset": 1634632,
      "componentType": 5126,
      "count": 65532,
      "max": [
        0.9996240139007568,
        0.994018018245697
      ],
      "min": [
        0.00012199999764561653,
        0.0003859999997075647
      ],
      "type": "VEC2"
    },
    {
      "bufferView": 0,
      "byteOffset": 2221236,
      "componentType": 5125,
      "count": 178893,
      "type": "SCALAR"
    },
    {
      "bufferView": 2,
      "byteOffset": 6476664,
      "componentType": 5126,
      "count": 65533,
      "max": [
        14.546204566955566,
        -1.1853079795837402,
        9.843151092529297
      ],
      "min": [
        -15.240701675415039,
        -11.421852111816406,
        -4.259867191314697
      ],
      "type": "VEC3"
    },
    {
      "bufferView": 2,
      "byteOffset": 7263060,
      "componentType": 5126,
      "count": 65533,
      "max": [
        0.999996542930603,
        0.9999987483024597,
        0.9999997615814209
      ],
      "min": [
        -0.9999974966049194,
        -0.9999998807907104,
        -0.9999881386756897
      ],
      "type": "VEC3"
    },
    {
      "bufferView": 1,
      "byteOffset": 2158888,
      "componentType": 5126,
      "count": 65533,
      "max": [
        0.9996330142021179,
        0.9705809950828552
      ],
      "min": [
        0.00012199999764561653,
        0.00037900000461377203
      ],
      "type": "VEC2"
    },
    {
      "bufferView": 0,
      "byteOffset": 2936808,
      "componentType": 5125,
      "count": 172239,
      "type": "SCALAR"
    },
    {
      "bufferView": 2,
      "byteOffset": 8049456,
      "componentType": 5126,
      "count": 65532,
      "max": [
        11.844849586486816,
        -1.2055100202560425,
        5.415465831756592
      ],
      "min": [
        -12.533970832824707,
        -11.400821685791016,
        -4.935811996459961
      ],
      "type": "VEC3"
    },
    {
      "bufferView": 2,
      "byteOffset": 8835840,
      "componentType": 5126,
      "count": 65532,
      "max": [
        0.9999922513961792,
        0.9999948740005493,
        0.999987006187439
      ],
      "min": [
        -0.9999998807907104,
        -1.0,
        -0.9999997615814209
      ],
      "type": "VEC3"
    },
    {
      "bufferView": 1,
      "byteOffset": 2683152,
      "componentType": 5126,
      "count": 65532,
      "max": [
        0.9996320009231567,
        0.9844970107078552
      ],
      "min": [
        0.00012199999764561653,
        0.0003969999961555004
      ],
      "type": "VEC2"
    },
    {
      "bufferView": 0,
      "byteOffset": 3625764,
      "componentType": 5125,
      "count": 165048,
      "type": "SCALAR"
    },
    {
      "bufferView": 2,
      "byteOffset": 9622224,
      "componentType": 5126,
      "count": 65534,
      "max": [
        14.847636222839355,
        -1.164307951927185,
        9.694417953491211
      ],
      "min": [
        -10.605854034423828,
        -11.352359771728516,
        -9.568375587463379
      ],
      "type": "VEC3"
    },
    {
      "bufferView": 2,
      "byteOffset": 10408632,
      "componentType": 5126,
      "count": 65534,
      "max": [
        0.9999929070472717,
        0.9999996423721313,
        0.9999944567680359
      ],
      "min": [
        -0.999995231628418,
        -1.0,
        -1.0
      ],
      "type": "VEC3"
    },
    {
      "bufferView": 1,
      "byteOffset": 3207408,
      "componentType": 5126,
      "count": 65534,
      "max": [
        0.9996320009231567,
        0.9720460176467896
      ],
      "min": [
        0.00012199999764561653,
        0.00037200000951997936
      ],
      "type": "VEC2"
    },
    {
      "bufferView": 0,
      "byteOffset": 4285956,
      "componentType": 5125,
      "count": 151131,
      "type": "SCALAR"
    },
    {
      "bufferView": 2,
      "byteOffset": 11195040,
      "componentType": 5126,
      "count": 65532,
      "max": [
        14.790945053100586,
        -1.179489016532898,
        9.558953285217285
      ],
      "min": [
        -15.154186248779297,
        -11.487228393554688,
        -9.58543586730957
      ],
      "type": "VEC3"
    },
    {
      "bufferView": 2,
      "byteOffset": 11981424,
      "componentType": 5126,
      "count": 65532,
      "max": [
        0.9999987483024597,
        0.9999684691429138,
        0.9999951124191284
      ],
      "min": [
        -0.9999983310699463,
        -1.0,
        -1.0
      ],
      "type": "VEC3"
    },
    {
      "bufferView": 1,
      "byteOffset": 3731680,
      "componentType": 5126,
      "count": 65532,
      "max": [
        0.9996240139007568,
        0.9881590008735657
      ],
      "min": [
        0.00012199999764561653,
        0.00036700000055134296
      ],
      "type": "VEC2"
    },
    {
      "bufferView": 0,
      "byteOffset": 4890480,
      "componentType": 5125,
      "count": 144645,
      "type": "SCALAR"
    },
    {
      "bufferView": 2,
      "byteOffset": 12767808,
      "componentType": 5126,
      "count": 15762,
      "max": [
        9.798460006713867,
        -1.2278950214385986,
        3.7569799423217773
      ],
      "min": [
        -1.6863199472427368,
        -11.487228393554688,
        -4.05023717880249
      ],
      "type": "VEC3"
    },
    {
      "bufferView": 2,
      "byteOffset": 12956952,
      "componentType": 5126,
      "count": 15762,
      "max": [
        0.9999783635139465,
        0.9998857378959656,
        0.9998674988746643
      ],
      "min": [
        -0.9999673366546631,
        -0.9999834895133972,
        -0.999755859375
      ],
      "type": "VEC3"
    },
    {
      "bufferView": 1,
      "byteOffset": 4255936,
      "componentType": 5126,
      "count": 15762,
      "max": [
        0.999563992023468,
        0.9647219777107239
      ],
      "min": [
        0.00012199999764561653,
        0.0004579999949783087
      ],
      "type": "VEC2"
    },
    {
      "bufferView": 0,
      "byteOffset": 5469060,
      "componentType": 5125,
      "count": 32226,
      "type": "SCALAR"
    },
    {
      "bufferView": 2,
      "byteOffset": 13146096,
      "componentType": 5126,
      "count": 42,
      "max": [
        1.072911024093628,
        -1.3767039775848389,
        -2.034773111343384
      ],
      "min": [
        -10.58755111694336,
        -8.531501770019531,
        -8.28553581237793
      ],
      "type": "VEC3"
    },
    {
      "bufferView": 2,
      "byteOffset": 13146600,
      "componentType": 5126,
      "count": 42,
      "max": [
        0.680655300617218,
        0.9985237717628479,
        0.9977532625198364
      ],
      "min": [
        -0.4230310916900635,
        -0.1671229898929596,
        -0.8583381772041321
      ],
      "type": "VEC3"
    },
    {
      "bufferView": 1,
      "byteOffset": 4382032,
      "componentType": 5126,
      "count": 42,
      "max": [
        0.9246860146522522,
        0.9552000164985657
      ],
      "min": [
        0.00012199999764561653,
        0.0019509999547153711
      ],
      "type": "VEC2"
    },
    {
      "bufferView": 0,
      "byteOffset": 5597964,
      "componentType": 5125,
      "count": 60,
      "type": "SCALAR"
    }
  ],
  "asset": {
    "extras": {
      "author": "artfletch (https://sketchfab.com/artfletch)",
      "license": "CC-BY-4.0 (http://creativecommons.org/licenses/by/4.0/)",
      "source": "https://sketchfab.com/3d-models/broadfields-farm-threshing-barn-interior-d8728ba46e794204b6089655f979089e",
      "title": "Broadfields Farm Threshing Barn Interior"
    },
    "generator": "Sketchfab-16.16.0",
    "version": "2.0"
  },
  "bufferViews": [
    {
      "buffer": 0,
      "byteLength": 5598204,
      "name": "floatBufferViews",
      "target": 34963
    },
    {
      "buffer": 0,
      "byteLength": 4382368,
      "byteOffset": 5598204,
      "byteStride": 8,
      "name": "floatBufferViews",
      "target": 34962
    },
    {
      "buffer": 0,
      "byteLength": 13147104,
      "byteOffset": 9980572,
      "byteStride": 12,
      "name": "floatBufferViews",
      "target": 34962
    }
  ],
  "buffers": [
    {
      "byteLength": 23127676,
      "uri": "scene.bin"
    }
  ],
  "extensionsUsed": [
    "KHR_materials_unlit"
  ],
  "images": [
    {
      "uri": "textures/ThamesChaseThreshingBarn02_Model_5ThamesChaseThreshingBarn02_Model_5_u1_v1_baseColor.jpeg"
    }
  ],
  "materials": [
    {
      "extensions": {
        "KHR_materials_unlit": {}
      },
      "name": "ThamesChaseThreshingBarn02_Model_5ThamesChaseThreshingBarn02_Model_5_u1_v1",
      "pbrMetallicRoughness": {
        "baseColorTexture": {
          "index": 0
        },
        "metallicFactor": 0.0
      }
    }
  ],
  "meshes": [
    {
      "name": "Object_0",
      "primitives": [
        {
          "attributes": {
            "NORMAL": 1,
            "POSITION": 0,
            "TEXCOORD_0": 2
          },
          "indices": 3,
          "material": 0,
          "mode": 4
        }
      ]
    },
    {
      "name": "Object_1",
      "primitives": [
        {
          "attributes": {
            "NORMAL": 5,
            "POSITION": 4,
            "TEXCOORD_0": 6
          },
          "indices": 7,
          "material": 0,
          "mode": 4
        }
      ]
    },
    {
      "name": "Object_2",
      "primitives": [
        {
          "attributes": {
            "NORMAL": 9,
            "POSITION": 8,
            "TEXCOORD_0": 10
          },
          "indices": 11,
          "material": 0,
          "mode": 4
        }
      ]
    },
    {
      "name": "Object_3",
      "primitives": [
        {
          "attributes": {
            "NORMAL": 13,
            "POSITION": 12,
            "TEXCOORD_0": 14
          },
          "indices": 15,
          "material": 0,
          "mode": 4
        }
      ]
    },
    {
      "name": "Object_4",
      "primitives": [
        {
          "attributes": {
            "NORMAL": 17,
            "POSITION": 16,
            "TEXCOORD_0": 18
          },
          "indices": 19,
          "material": 0,
          "mode": 4
        }
      ]
    },
    {
      "name": "Object_5",
      "primitives": [
        {
          "attributes": {
            "NORMAL": 21,
            "POSITION": 20,
            "TEXCOORD_0": 22
          },
          "indices": 23,
          "material": 0,
          "mode": 4
        }
      ]
    },
    {
      "name": "Object_6",
      "primitives": [
        {
          "attributes": {
            "NORMAL": 25,
            "POSITION": 24,
            "TEXCOORD_0": 26
          },
          "indices": 27,
          "material": 0,
          "mode": 4
        }
      ]
    },
    {
      "name": "Object_7",
      "primitives": [
        {
          "attributes": {
            "NORMAL": 29,
            "POSITION": 28,
            "TEXCOORD_0": 30
          },
          "indices": 31,
          "material": 0,
          "mode": 4
        }
      ]
    },
    {
      "name": "Object_8",
      "primitives": [
        {
          "attributes": {
            "NORMAL": 33,
            "POSITION": 32,
            "TEXCOORD_0": 34
          },
          "indices": 35,
          "material": 0,
          "mode": 4
        }
      ]
    },
    {
      "name": "Object_9",
      "primitives": [
        {
          "attributes": {
            "NORMAL": 37,
            "POSITION": 36,
            "TEXCOORD_0": 38
          },
          "indices": 39,
          "material": 0,
          "mode": 4
        }
      ]
    },
    {
      "name": "Object_10",
      "primitives": [
        {
          "attributes": {
            "NORMAL": 41,
            "POSITION": 40,
            "TEXCOORD_0": 42
          },
          "indices": 43,
          "material": 0,
          "mode": 4
        }
      ]
    },
    {
      "name": "Object_11",
      "primitives": [
        {
          "attributes": {
            "NORMAL": 45,
            "POSITION": 44,
            "TEXCOORD_0": 46
          },
          "indices": 47,
          "material": 0,
          "mode": 4
        }
      ]
    }
  ],
  "nodes": [
    {
      "children": [
        1
      ],
      "matrix": [
        1.0,
        0.0,
        0.0,
        0.0,
        0.0,
        -1.0,
        -4.440892098500626e-16,
        0.0,
        0.0,
        4.440892098500626e-16,
        -1.0,
        0.0,
        0.0,
        0.0,
        0.0,
        1.0
      ],
      "name": "Sketchfab_model"
    },
    {
      "children": [
        2,
        3,
        4,
        5,
        6,
        7,
        8,
        9,
        10,
        11,
        12,
        13
      ],
      "name": "ThamesChaseThreshingBarn02.obj.cleaner.materialmerger.gles"
    },
    {
      "mesh": 0,
      "name": "Object_2"
    },
    {
      "mesh": 1,
      "name": "Object_3"
    },
    {
      "mesh": 2,
      "name": "Object_4"
    },
    {
      "mesh": 3,
      "name": "Object_5"
    },
    {
      "mesh": 4,
      "name": "Object_6"
    },
    {
      "mesh": 5,
      "name": "Object_7"
    },
    {
      "mesh": 6,
      "name": "Object_8"
    },
    {
      "mesh": 7,
      "name": "Object_9"
    },
    {
      "mesh": 8,
      "name": "Object_10"
    },
    {
      "mesh": 9,
      "name": "Object_11"
    },
    {
      "mesh": 10,
      "name": "Object_12"
    },
    {
      "mesh": 11,
      "name": "Object_13"
    }
  ],
  "samplers": [
    {
      "magFilter": 9729,
      "minFilter": 9987,
      "wrapS": 10497,
      "wrapT": 10497
    }
  ],
  "scene": 0,
  "scenes": [
    {
      "name": "Sketchfab_Scene",
      "nodes": [
        0
      ]
    }
  ],
  "textures": [
    {
      "sampler": 0,
      "source": 0
    }
  ]
}
